<svg xmlns="http://www.w3.org/2000/svg" xmlns:svg="http://www.w3.org/2000/svg" id="svg2" width="737.00787" height="188.97639" viewBox="0 0 737.00787 188.97639"><defs id="defs6"></defs><g id="g8" transform="matrix(1.3333333,0,0,-1.3333333,0,188.9764)"><path d="m 223.6039,45.94 c 0,-2.321 -0.2729,-4.4221 -0.8265,-6.2881 -0.5463,-1.8661 -1.3655,-3.4512 -2.45,-4.7634 -1.0925,-1.3124 -2.4577,-2.3213 -4.1037,-3.0265 -1.6458,-0.6979 -3.5649,-1.0542 -5.7569,-1.0542 -2.162,0 -4.0278,0.326 -5.6055,0.9708 -1.5855,0.6446 -2.8823,1.5775 -3.9138,2.8063 -1.0318,1.2289 -1.7978,2.761 -2.2984,4.5814 -0.5082,1.8204 -0.7585,3.9217 -0.7585,6.2881 0,2.268 0.273,4.3237 0.8192,6.1744 0.5536,1.8581 1.3728,3.4282 2.4727,4.7254 1.0921,1.2971 2.4652,2.2983 4.111,3.0038 1.6385,0.6977 3.5575,1.0543 5.7496,1.0543 2.124,0 3.967,-0.3187 5.5372,-0.9559 1.5701,-0.6369 2.8746,-1.5701 3.9214,-2.7913 1.0468,-1.2211 1.8204,-2.7306 2.3363,-4.5357 0.508,-1.7977 0.7659,-3.8608 0.7659,-6.1894 z m -4.0274,-0.2656 c 0,1.6307 -0.1443,3.1478 -0.4326,4.5436 -0.2883,1.4032 -0.7659,2.6167 -1.4411,3.6482 -0.675,1.0318 -1.5778,1.8357 -2.7003,2.4123 -1.1302,0.5763 -2.5183,0.8646 -4.1794,0.8646 -1.6611,0 -3.0492,-0.311 -4.1794,-0.9329 -1.1225,-0.6219 -2.0404,-1.4488 -2.7383,-2.488 -0.7052,-1.0392 -1.2135,-2.2527 -1.5168,-3.6332 -0.3036,-1.3881 -0.4552,-2.8445 -0.4552,-4.369 0,-1.6841 0.1442,-3.2465 0.4249,-4.665 0.2806,-1.4258 0.7585,-2.647 1.4184,-3.6788 0.6673,-1.0315 1.5625,-1.8278 2.6773,-2.3967 1.1229,-0.5765 2.526,-0.8572 4.2174,-0.8572 1.6688,0 3.0796,0.311 4.2174,0.9329 1.1452,0.6219 2.0631,1.4641 2.761,2.5183 0.6902,1.0619 1.1908,2.2907 1.4867,3.6788 0.2957,1.3958 0.44,2.8673 0.44,4.4221" style="fill:#535051;fill-opacity:1;fill-rule:nonzero;stroke:none" id="path10"></path><path d="m 240.9134,50.4757 c 0,-0.326 -0.008,-0.5993 -0.0229,-0.8192 -0.0151,-0.2274 -0.0454,-0.402 -0.0834,-0.5233 -0.0456,-0.129 -0.1063,-0.22 -0.1669,-0.2883 -0.0681,-0.0683 -0.1593,-0.0986 -0.2807,-0.0986 -0.1213,0 -0.2653,0.0303 -0.4323,0.0986 -0.1743,0.0683 -0.3639,0.129 -0.5765,0.1973 -0.22,0.0683 -0.455,0.129 -0.7206,0.1896 -0.273,0.0607 -0.5612,0.091 -0.8722,0.091 -0.3716,0 -0.7282,-0.0759 -1.0845,-0.2276 -0.3566,-0.144 -0.7359,-0.3866 -1.1228,-0.7282 -0.3943,-0.3413 -0.804,-0.7963 -1.2362,-1.3575 -0.425,-0.5613 -0.9029,-1.2515 -1.4185,-2.0634 V 31.786 c 0,-0.1137 -0.0303,-0.22 -0.091,-0.2956 -0.0606,-0.0837 -0.1593,-0.1517 -0.2883,-0.2124 -0.1366,-0.0609 -0.3186,-0.1063 -0.5536,-0.1366 -0.2429,-0.0303 -0.5462,-0.0456 -0.9178,-0.0456 -0.349,0 -0.6449,0.0153 -0.8876,0.0456 -0.235,0.0303 -0.4246,0.0757 -0.5612,0.1366 -0.144,0.0607 -0.2427,0.1287 -0.2883,0.2124 -0.053,0.0756 -0.0833,0.1819 -0.0833,0.2956 v 20.0021 c 0,0.1213 0.0226,0.22 0.0683,0.3033 0.0453,0.0757 0.1363,0.1517 0.2653,0.22 0.1366,0.0683 0.3036,0.106 0.5159,0.129 0.2047,0.0227 0.4779,0.038 0.8192,0.038 0.326,0 0.5993,-0.0153 0.8116,-0.038 0.2123,-0.023 0.3792,-0.0607 0.5006,-0.129 0.1136,-0.0683 0.2046,-0.1443 0.2579,-0.22 0.0454,-0.0833 0.0757,-0.182 0.0757,-0.3033 v -2.9129 c 0.5462,0.8042 1.0619,1.4565 1.5398,1.9571 0.4856,0.5006 0.9405,0.9025 1.3731,1.1908 0.4246,0.2883 0.8492,0.4856 1.2742,0.5993 0.4246,0.1063 0.8495,0.1669 1.2741,0.1669 0.1973,0 0.4173,-0.0153 0.6599,-0.038 0.243,-0.0226 0.5006,-0.0606 0.7662,-0.1213 0.2657,-0.0606 0.5083,-0.1213 0.7206,-0.1973 0.22,-0.0759 0.3716,-0.1516 0.4553,-0.2199 0.0909,-0.076 0.1516,-0.144 0.1819,-0.2124 0.0304,-0.0683 0.053,-0.1516 0.0757,-0.2579 0.023,-0.1063 0.038,-0.258 0.0457,-0.4553 0.008,-0.197 0.008,-0.4702 0.008,-0.8115" style="fill:#535051;fill-opacity:1;fill-rule:nonzero;stroke:none" id="path12"></path><path d="m 261.1809,50.8779 c 0,-0.5235 -0.0684,-0.8952 -0.205,-1.1228 -0.144,-0.2276 -0.326,-0.3489 -0.5459,-0.3489 h -2.8673 c 0.5159,-0.531 0.8799,-1.1149 1.0845,-1.7598 0.2126,-0.6446 0.3113,-1.3198 0.3113,-2.0174 0,-1.1531 -0.1823,-2.177 -0.5539,-3.0645 -0.3716,-0.8876 -0.8949,-1.6385 -1.5851,-2.2527 -0.6903,-0.6146 -1.5095,-1.0848 -2.4577,-1.4108 -0.9482,-0.3263 -2.0024,-0.493 -3.1555,-0.493 -0.8116,0 -1.5928,0.106 -2.321,0.326 -0.7356,0.2123 -1.3045,0.4856 -1.6991,0.8116 -0.2653,-0.2653 -0.4853,-0.5689 -0.6599,-0.9102 -0.1667,-0.3413 -0.2503,-0.7356 -0.2503,-1.1832 0,-0.5159 0.2353,-0.9482 0.7206,-1.2895 0.4779,-0.3413 1.1228,-0.5233 1.919,-0.5536 l 5.2263,-0.22 c 0.9935,-0.0303 1.9037,-0.1669 2.7306,-0.4096 0.8268,-0.2503 1.5474,-0.5916 2.154,-1.0468 0.6069,-0.455 1.0848,-1.0089 1.4261,-1.6688 0.3413,-0.6599 0.5083,-1.4258 0.5083,-2.2983 0,-0.9176 -0.1897,-1.7901 -0.5766,-2.6243 -0.3869,-0.8269 -0.9785,-1.5551 -1.7674,-2.1847 -0.7962,-0.6295 -1.8051,-1.1301 -3.0339,-1.4941 -1.2288,-0.3566 -2.6776,-0.5386 -4.3537,-0.5386 -1.6158,0 -2.9886,0.1366 -4.1264,0.4096 -1.1302,0.273 -2.0631,0.6449 -2.7837,1.1225 -0.7282,0.4703 -1.2517,1.0392 -1.5777,1.6991 -0.3263,0.6599 -0.493,1.3731 -0.493,2.1467 0,0.4853 0.0607,0.9632 0.182,1.4185 0.1137,0.4626 0.2957,0.8948 0.5386,1.3121 0.2503,0.4173 0.5536,0.8116 0.9176,1.1908 0.3566,0.3793 0.7815,0.7509 1.2518,1.1226 -0.7283,0.3719 -1.2592,0.8345 -1.6081,1.3957 -0.349,0.5613 -0.5236,1.1756 -0.5236,1.8281 0,0.9026 0.1823,1.7065 0.5539,2.4197 0.3716,0.7129 0.8342,1.3501 1.3805,1.9114 -0.4626,0.5459 -0.8269,1.1681 -1.0922,1.8507 -0.2656,0.6902 -0.4023,1.5245 -0.4023,2.503 0,1.1378 0.1973,2.1617 0.5843,3.0645 0.3792,0.9026 0.9178,1.6685 1.6004,2.2907 0.6749,0.6219 1.4941,1.0998 2.45,1.4335 0.9555,0.3336 2.0024,0.5006 3.1249,0.5006 0.6069,0 1.1758,-0.0303 1.6991,-0.0987 0.5235,-0.0683 1.0165,-0.1593 1.4791,-0.2806 h 6.0455 c 0.2503,0 0.4399,-0.1213 0.5612,-0.364 0.129,-0.2429 0.1897,-0.6219 0.1897,-1.1225 z m -5.7269,-5.2642 c 0,1.3578 -0.3793,2.4197 -1.1225,3.1859 -0.7509,0.7659 -1.8128,1.1452 -3.1932,1.1452 -0.7132,0 -1.3275,-0.1214 -1.8511,-0.3564 -0.5309,-0.2352 -0.9632,-0.5615 -1.3121,-0.9785 -0.349,-0.4172 -0.6066,-0.8952 -0.7812,-1.4337 -0.167,-0.5383 -0.258,-1.1073 -0.258,-1.6991 0,-1.3198 0.3793,-2.3587 1.1228,-3.1099 0.7509,-0.7583 1.7975,-1.1376 3.1476,-1.1376 0.7282,0 1.3578,0.1137 1.8887,0.349 0.531,0.2273 0.9709,0.5459 1.3198,0.9555 0.349,0.402 0.6069,0.8723 0.7813,1.4108 0.1669,0.531 0.2579,1.0849 0.2579,1.6688 z m 1.8431,-15.8451 c 0,0.8569 -0.3563,1.5168 -1.0542,1.9871 -0.7055,0.4629 -1.6611,0.7132 -2.8596,0.7435 l -5.1806,0.1743 c -0.4703,-0.3639 -0.8572,-0.7205 -1.1605,-1.0542 -0.3033,-0.3339 -0.5462,-0.6525 -0.7282,-0.9558 -0.1743,-0.3033 -0.2957,-0.5992 -0.364,-0.8949 -0.0683,-0.2959 -0.0986,-0.5992 -0.0986,-0.9102 0,-0.9635 0.4853,-1.6991 1.4638,-2.1923 0.9785,-0.493 2.3439,-0.7433 4.0884,-0.7433 1.1151,0 2.0404,0.1063 2.7913,0.3186 0.7509,0.22 1.3501,0.5006 1.8127,0.8572 0.4553,0.3564 0.7889,0.766 0.9862,1.2212 0.1973,0.4626 0.3033,0.9405 0.3033,1.4488" style="fill:#535051;fill-opacity:1;fill-rule:nonzero;stroke:none" id="path14"></path><path d="m 280.1208,31.7633 c 0,-0.1743 -0.0606,-0.3109 -0.182,-0.3943 -0.1139,-0.091 -0.2806,-0.1593 -0.4855,-0.2049 -0.2124,-0.0454 -0.5157,-0.0683 -0.9102,-0.0683 -0.387,0 -0.6979,0.0229 -0.9253,0.0683 -0.2276,0.0456 -0.3946,0.1139 -0.5006,0.2049 -0.1063,0.0834 -0.1519,0.22 -0.1519,0.3943 v 2.0024 c -0.8799,-0.9328 -1.8507,-1.6611 -2.9276,-2.1767 -1.0695,-0.5159 -2.2074,-0.7812 -3.4059,-0.7812 -1.0542,0 -2.01,0.1363 -2.8595,0.417 -0.8496,0.2732 -1.5778,0.6675 -2.1771,1.1834 -0.5992,0.5233 -1.0695,1.1605 -1.4031,1.9114 -0.3263,0.7586 -0.493,1.6155 -0.493,2.579 0,1.1302 0.2277,2.101 0.6826,2.9353 0.4626,0.8268 1.1226,1.5171 1.9797,2.063 0.8572,0.5539 1.9115,0.9635 3.1556,1.2365 1.2438,0.273 2.647,0.4096 4.2021,0.4096 h 2.7532 v 1.5551 c 0,0.7736 -0.0833,1.4561 -0.2426,2.0477 -0.167,0.5916 -0.4249,1.0848 -0.7889,1.4715 -0.3639,0.3946 -0.8342,0.6905 -1.4108,0.8952 -0.5766,0.1973 -1.2895,0.2959 -2.1314,0.2959 -0.9102,0 -1.7143,-0.1063 -2.4349,-0.3186 -0.7206,-0.22 -1.3502,-0.4552 -1.8887,-0.7132 -0.546,-0.2577 -0.9936,-0.4929 -1.3576,-0.7129 -0.3642,-0.2123 -0.6295,-0.3186 -0.8118,-0.3186 -0.1137,0 -0.22,0.0303 -0.311,0.0836 -0.0909,0.0607 -0.1666,0.1516 -0.2349,0.273 -0.0607,0.1136 -0.114,0.2653 -0.1443,0.4549 -0.0304,0.1823 -0.0454,0.387 -0.0454,0.6069 0,0.3716 0.0303,0.6676 0.0834,0.8799 0.0532,0.2123 0.1746,0.4173 0.3792,0.6146 0.1973,0.1893 0.5386,0.4169 1.0316,0.6749 0.4855,0.2579 1.0468,0.4929 1.684,0.7129 0.637,0.2126 1.3349,0.3869 2.0934,0.5309 0.7509,0.1443 1.5171,0.2126 2.2907,0.2126 1.4335,0 2.6549,-0.1669 3.6635,-0.4932 1.0088,-0.326 1.8207,-0.8039 2.4426,-1.4335 0.6219,-0.6296 1.0769,-1.4108 1.3575,-2.3437 0.2809,-0.9331 0.4249,-2.0177 0.4249,-3.2618 z m -3.6485,9.1324 h -3.1325 c -1.0089,0 -1.8811,-0.0833 -2.6246,-0.2503 -0.7356,-0.1743 -1.3502,-0.4246 -1.8431,-0.7585 -0.4853,-0.3337 -0.8495,-0.7356 -1.0772,-1.1982 -0.2273,-0.4703 -0.3413,-1.0015 -0.3413,-1.6081 0,-1.0392 0.3263,-1.8661 0.9862,-2.4803 0.6599,-0.6146 1.5851,-0.9256 2.7686,-0.9256 0.9632,0 1.8507,0.243 2.6773,0.7359 0.8192,0.4853 1.6841,1.2362 2.5866,2.2451 z" style="fill:#535051;fill-opacity:1;fill-rule:nonzero;stroke:none" id="path16"></path><path d="m 304.0744,31.786 c 0,-0.1137 -0.0303,-0.22 -0.091,-0.2956 -0.0606,-0.0837 -0.1516,-0.1517 -0.2883,-0.2124 -0.1363,-0.0609 -0.3183,-0.1063 -0.5536,-0.1366 -0.2426,-0.0303 -0.5385,-0.0456 -0.8875,-0.0456 -0.3716,0 -0.6749,0.0153 -0.9176,0.0456 -0.2352,0.0303 -0.4172,0.0757 -0.5538,0.1366 -0.129,0.0607 -0.2277,0.1287 -0.2883,0.2124 -0.0607,0.0756 -0.091,0.1819 -0.091,0.2956 v 11.7114 c 0,1.1454 -0.0834,2.0633 -0.2653,2.7535 -0.1747,0.6979 -0.4326,1.2972 -0.7739,1.8051 -0.3413,0.5006 -0.7812,0.8876 -1.3272,1.1532 -0.5386,0.2653 -1.1605,0.4019 -1.8737,0.4019 -0.9178,0 -1.8354,-0.3262 -2.7533,-0.9785 -0.9255,-0.6523 -1.8887,-1.6081 -2.8899,-2.8672 V 31.786 c 0,-0.1137 -0.0303,-0.22 -0.091,-0.2956 -0.0607,-0.0837 -0.1593,-0.1517 -0.2883,-0.2124 -0.1366,-0.0609 -0.3186,-0.1063 -0.5536,-0.1366 -0.2429,-0.0303 -0.5462,-0.0456 -0.9178,-0.0456 -0.349,0 -0.6449,0.0153 -0.8876,0.0456 -0.235,0.0303 -0.4246,0.0757 -0.5612,0.1366 -0.144,0.0607 -0.2427,0.1287 -0.2883,0.2124 -0.053,0.0756 -0.0833,0.1819 -0.0833,0.2956 v 20.0021 c 0,0.1213 0.0226,0.22 0.0683,0.3033 0.0453,0.0757 0.1363,0.1517 0.2653,0.22 0.1366,0.0683 0.3036,0.106 0.5159,0.129 0.2047,0.0227 0.4779,0.038 0.8192,0.038 0.326,0 0.5993,-0.0153 0.8116,-0.038 0.2123,-0.023 0.3792,-0.0607 0.5006,-0.129 0.1136,-0.0683 0.2046,-0.1443 0.2579,-0.22 0.0454,-0.0833 0.0757,-0.182 0.0757,-0.3033 v -2.6472 c 1.1228,1.2591 2.2453,2.1843 3.3678,2.7685 1.1152,0.584 2.2454,0.8799 3.3829,0.8799 1.3351,0 2.4576,-0.2276 3.3679,-0.6828 0.9102,-0.4474 1.6534,-1.0542 2.2149,-1.8051 0.5613,-0.7586 0.9633,-1.6461 1.2059,-2.655 0.2503,-1.0162 0.3716,-2.2374 0.3716,-3.6558 z" style="fill:#535051;fill-opacity:1;fill-rule:nonzero;stroke:none" id="path18"></path><path d="m 314.4283,31.786 c 0,-0.1137 -0.0304,-0.22 -0.091,-0.2956 -0.0607,-0.0837 -0.1593,-0.1517 -0.2883,-0.2124 -0.1367,-0.0609 -0.3186,-0.1063 -0.5536,-0.1366 -0.243,-0.0303 -0.5463,-0.0456 -0.9179,-0.0456 -0.3489,0 -0.6449,0.0153 -0.8875,0.0456 -0.235,0.0303 -0.4246,0.0757 -0.5613,0.1366 -0.144,0.0607 -0.2426,0.1287 -0.2883,0.2124 -0.053,0.0756 -0.0833,0.1819 -0.0833,0.2956 v 20.0021 c 0,0.106 0.0303,0.197 0.0833,0.288 0.0457,0.091 0.1443,0.167 0.2883,0.22 0.1367,0.0607 0.3263,0.1063 0.5613,0.1366 0.2426,0.0304 0.5386,0.0457 0.8875,0.0457 0.3716,0 0.6749,-0.0153 0.9179,-0.0457 0.235,-0.0303 0.4169,-0.0759 0.5536,-0.1366 0.129,-0.053 0.2276,-0.129 0.2883,-0.22 0.0606,-0.091 0.091,-0.182 0.091,-0.288 z m 0.4172,26.7602 c 0,-0.8646 -0.1593,-1.4488 -0.4856,-1.7597 -0.3262,-0.311 -0.9252,-0.4627 -1.7977,-0.4627 -0.8646,0 -1.4488,0.1517 -1.7671,0.4553 -0.3186,0.3033 -0.4779,0.8722 -0.4779,1.7218 0,0.8571 0.1593,1.4411 0.4853,1.752 0.3262,0.311 0.9255,0.4703 1.7977,0.4703 0.8648,0 1.4488,-0.1516 1.7674,-0.4549 0.3186,-0.3036 0.4779,-0.8799 0.4779,-1.7221" style="fill:#535051;fill-opacity:1;fill-rule:nonzero;stroke:none" id="path20"></path><path d="m 333.9598,32.7872 c 0,-0.2806 -0.0229,-0.5233 -0.0683,-0.7206 -0.0456,-0.2046 -0.0986,-0.3639 -0.1517,-0.4929 -0.0606,-0.1213 -0.1442,-0.2123 -0.2503,-0.2653 -0.0986,-0.0533 -0.2126,-0.076 -0.3339,-0.076 H 320.845 c -0.3109,0 -0.5612,0.1063 -0.7659,0.311 -0.1973,0.2049 -0.2959,0.5536 -0.2959,1.0468 v 0.7509 c 0,0.2123 0.015,0.3943 0.0456,0.5613 0.0303,0.1593 0.0681,0.3262 0.1287,0.4855 0.0607,0.1667 0.1443,0.3337 0.2429,0.5233 0.1061,0.182 0.235,0.3943 0.3793,0.6296 l 8.8214,13.7364 h -8.5561 c -0.235,0 -0.4246,0.1216 -0.5612,0.3642 -0.144,0.2427 -0.2123,0.6446 -0.2123,1.1909 0,0.2656 0.015,0.5006 0.0453,0.6979 0.0303,0.2046 0.076,0.3639 0.1443,0.4929 0.0683,0.1213 0.144,0.2123 0.2426,0.2656 0.0987,0.053 0.2124,0.0757 0.3413,0.0757 h 11.4687 c 0.167,0 0.311,-0.0227 0.4323,-0.0683 0.129,-0.0454 0.2353,-0.1137 0.3263,-0.22 0.0833,-0.106 0.1593,-0.235 0.2123,-0.4019 0.0456,-0.1593 0.076,-0.3716 0.076,-0.6219 v -0.7056 c 0,-0.2123 -0.0153,-0.4019 -0.0457,-0.5839 -0.0303,-0.1744 -0.0757,-0.349 -0.1366,-0.5159 -0.053,-0.1744 -0.1363,-0.3563 -0.2426,-0.546 -0.1061,-0.1973 -0.2277,-0.4096 -0.3793,-0.6449 l -8.7758,-13.7364 h 9.375 c 0.1213,0 0.2276,-0.0229 0.3263,-0.0759 0.0986,-0.0531 0.1743,-0.1367 0.2426,-0.258 0.0684,-0.1137 0.1214,-0.273 0.167,-0.4776 0.0454,-0.1973 0.0683,-0.44 0.0683,-0.7209" style="fill:#535051;fill-opacity:1;fill-rule:nonzero;stroke:none" id="path22"></path><path d="m 353.4914,31.7633 c 0,-0.1743 -0.0607,-0.3109 -0.182,-0.3943 -0.114,-0.091 -0.2806,-0.1593 -0.4856,-0.2049 -0.2123,-0.0454 -0.5156,-0.0683 -0.9102,-0.0683 -0.3869,0 -0.6979,0.0229 -0.9252,0.0683 -0.2276,0.0456 -0.3946,0.1139 -0.5006,0.2049 -0.1063,0.0834 -0.152,0.22 -0.152,0.3943 v 2.0024 c -0.8798,-0.9328 -1.8507,-1.6611 -2.9276,-2.1767 -1.0695,-0.5159 -2.2073,-0.7812 -3.4058,-0.7812 -1.0542,0 -2.0101,0.1363 -2.8596,0.417 -0.8495,0.2732 -1.5778,0.6675 -2.177,1.1834 -0.5992,0.5233 -1.0695,1.1605 -1.4032,1.9114 -0.3262,0.7586 -0.4929,1.6155 -0.4929,2.579 0,1.1302 0.2276,2.101 0.6826,2.9353 0.4626,0.8268 1.1225,1.5171 1.9797,2.063 0.8572,0.5539 1.9114,0.9635 3.1555,1.2365 1.2439,0.273 2.647,0.4096 4.2021,0.4096 h 2.7533 v 1.5551 c 0,0.7736 -0.0833,1.4561 -0.2426,2.0477 -0.167,0.5916 -0.425,1.0848 -0.7889,1.4715 -0.364,0.3946 -0.8343,0.6905 -1.4108,0.8952 -0.5766,0.1973 -1.2895,0.2959 -2.1314,0.2959 -0.9102,0 -1.7144,-0.1063 -2.435,-0.3186 -0.7205,-0.22 -1.3501,-0.4552 -1.8887,-0.7132 -0.5459,-0.2577 -0.9935,-0.4929 -1.3575,-0.7129 -0.3643,-0.2123 -0.6296,-0.3186 -0.8118,-0.3186 -0.1137,0 -0.22,0.0303 -0.311,0.0836 -0.091,0.0607 -0.1667,0.1516 -0.235,0.273 -0.0607,0.1136 -0.1139,0.2653 -0.1443,0.4549 -0.0303,0.1823 -0.0453,0.387 -0.0453,0.6069 0,0.3716 0.0303,0.6676 0.0833,0.8799 0.0533,0.2123 0.1746,0.4173 0.3793,0.6146 0.1973,0.1893 0.5386,0.4169 1.0315,0.6749 0.4856,0.2579 1.0468,0.4929 1.6841,0.7129 0.6369,0.2126 1.3348,0.3869 2.0934,0.5309 0.7509,0.1443 1.5171,0.2126 2.2906,0.2126 1.4335,0 2.655,-0.1669 3.6635,-0.4932 1.0089,-0.326 1.8207,-0.8039 2.4426,-1.4335 0.622,-0.6296 1.0769,-1.4108 1.3576,-2.3437 0.2809,-0.9331 0.4249,-2.0177 0.4249,-3.2618 z m -3.6485,9.1324 h -3.1326 c -1.0088,0 -1.881,-0.0833 -2.6246,-0.2503 -0.7356,-0.1743 -1.3501,-0.4246 -1.8431,-0.7585 -0.4852,-0.3337 -0.8495,-0.7356 -1.0771,-1.1982 -0.2274,-0.4703 -0.3413,-1.0015 -0.3413,-1.6081 0,-1.0392 0.3263,-1.8661 0.9862,-2.4803 0.6599,-0.6146 1.5851,-0.9256 2.7686,-0.9256 0.9632,0 1.8507,0.243 2.6773,0.7359 0.8192,0.4853 1.684,1.2362 2.5866,2.2451 z" style="fill:#535051;fill-opacity:1;fill-rule:nonzero;stroke:none" id="path24"></path><path d="m 370.194,33.2578 c 0,-0.4326 -0.0304,-0.7739 -0.0837,-1.0242 -0.0606,-0.2503 -0.1516,-0.4399 -0.2729,-0.5536 -0.1137,-0.1213 -0.296,-0.2353 -0.531,-0.3339 -0.2353,-0.106 -0.5082,-0.1897 -0.8115,-0.2577 -0.3036,-0.0683 -0.622,-0.1216 -0.9635,-0.167 -0.3413,-0.0456 -0.6826,-0.0683 -1.0239,-0.0683 -1.0392,0 -1.9267,0.1367 -2.67,0.4096 -0.7355,0.2807 -1.3424,0.6903 -1.8204,1.2439 -0.4702,0.5615 -0.8192,1.2591 -1.0315,2.1163 -0.2123,0.8496 -0.3186,1.8508 -0.3186,3.0113 v 11.6886 h -2.8066 c -0.22,0 -0.3943,0.1137 -0.5309,0.3566 -0.1364,0.235 -0.197,0.622 -0.197,1.1529 0,0.2806 0.015,0.5159 0.053,0.7129 0.038,0.1896 0.0833,0.3489 0.144,0.4779 0.0606,0.1213 0.1366,0.2123 0.2353,0.2656 0.0986,0.053 0.2046,0.0757 0.3186,0.0757 h 2.7836 v 4.756 c 0,0.106 0.0227,0.197 0.076,0.2883 0.053,0.091 0.144,0.1666 0.288,0.235 0.1366,0.0683 0.3262,0.1136 0.5689,0.1442 0.2352,0.0304 0.5309,0.0454 0.8875,0.0454 0.3716,0 0.6752,-0.015 0.9102,-0.0454 0.2353,-0.0306 0.4249,-0.0759 0.5536,-0.1442 0.1366,-0.0684 0.2276,-0.144 0.2883,-0.235 0.0607,-0.0913 0.091,-0.1823 0.091,-0.2883 v -4.756 h 5.1352 c 0.1137,0 0.22,-0.0227 0.311,-0.0757 0.0833,-0.0533 0.167,-0.1443 0.2276,-0.2656 0.0683,-0.129 0.1213,-0.2883 0.144,-0.4779 0.0303,-0.197 0.0457,-0.4323 0.0457,-0.7129 0,-0.5309 -0.0607,-0.9179 -0.1973,-1.1529 -0.1367,-0.2429 -0.311,-0.3566 -0.531,-0.3566 h -5.1352 V 38.1651 c 0,-1.3805 0.2049,-2.4197 0.6069,-3.1249 0.4096,-0.6979 1.1378,-1.0545 2.192,-1.0545 0.3413,0 0.6449,0.038 0.9102,0.0986 0.2656,0.0684 0.5083,0.1443 0.7132,0.2124 0.2047,0.0759 0.3867,0.1442 0.5309,0.2126 0.1517,0.068 0.2807,0.0986 0.402,0.0986 0.0757,0 0.144,-0.0153 0.2123,-0.0533 0.0683,-0.038 0.114,-0.106 0.1517,-0.2123 0.038,-0.1063 0.0759,-0.2426 0.0986,-0.4173 0.0303,-0.1819 0.0457,-0.4019 0.0457,-0.6672" style="fill:#535051;fill-opacity:1;fill-rule:nonzero;stroke:none" id="path26"></path><path d="m 378.7121,31.786 c 0,-0.1137 -0.0304,-0.22 -0.091,-0.2956 -0.0607,-0.0837 -0.1593,-0.1517 -0.2883,-0.2124 -0.1366,-0.0609 -0.3186,-0.1063 -0.5536,-0.1366 -0.2429,-0.0303 -0.5463,-0.0456 -0.9179,-0.0456 -0.3489,0 -0.6449,0.0153 -0.8875,0.0456 -0.235,0.0303 -0.4246,0.0757 -0.5613,0.1366 -0.144,0.0607 -0.2426,0.1287 -0.2882,0.2124 -0.0531,0.0756 -0.0834,0.1819 -0.0834,0.2956 v 20.0021 c 0,0.106 0.0303,0.197 0.0834,0.288 0.0456,0.091 0.1442,0.167 0.2882,0.22 0.1367,0.0607 0.3263,0.1063 0.5613,0.1366 0.2426,0.0304 0.5386,0.0457 0.8875,0.0457 0.3716,0 0.675,-0.0153 0.9179,-0.0457 0.235,-0.0303 0.417,-0.0759 0.5536,-0.1366 0.129,-0.053 0.2276,-0.129 0.2883,-0.22 0.0606,-0.091 0.091,-0.182 0.091,-0.288 z m 0.4172,26.7602 c 0,-0.8646 -0.1593,-1.4488 -0.4856,-1.7597 -0.3262,-0.311 -0.9252,-0.4627 -1.7977,-0.4627 -0.8646,0 -1.4488,0.1517 -1.7671,0.4553 -0.3186,0.3033 -0.4779,0.8722 -0.4779,1.7218 0,0.8571 0.1593,1.4411 0.4853,1.752 0.3262,0.311 0.9255,0.4703 1.7977,0.4703 0.8649,0 1.4488,-0.1516 1.7674,-0.4549 0.3186,-0.3036 0.4779,-0.8799 0.4779,-1.7221" style="fill:#535051;fill-opacity:1;fill-rule:nonzero;stroke:none" id="path28"></path><path d="m 404.0841,42.0109 c 0,-1.6308 -0.2126,-3.1326 -0.6449,-4.498 -0.4246,-1.3729 -1.0695,-2.5563 -1.919,-3.5499 -0.8496,-0.9935 -1.9191,-1.7674 -3.2009,-2.321 -1.2818,-0.5536 -2.7686,-0.8342 -4.4524,-0.8342 -1.646,0 -3.0795,0.2503 -4.3007,0.7356 -1.2212,0.4855 -2.2453,1.1985 -3.0569,2.1313 -0.8115,0.9332 -1.4184,2.0707 -1.8204,3.4059 -0.4019,1.3274 -0.5992,2.8443 -0.5992,4.5283 0,1.6308 0.2123,3.1326 0.6295,4.4977 0.425,1.3731 1.0619,2.5563 1.9114,3.5499 0.8496,0.9938 1.9191,1.7597 3.1936,2.306 1.2741,0.5536 2.7609,0.8268 4.46,0.8268 1.6458,0 3.0795,-0.2429 4.3007,-0.7359 1.2212,-0.4852 2.2451,-1.1984 3.0566,-2.1313 0.8192,-0.9329 1.4261,-2.0707 1.8357,-3.3982 0.4096,-1.3348 0.6069,-2.8369 0.6069,-4.513 z m -3.8608,-0.2427 c 0,1.0769 -0.1063,2.1011 -0.3036,3.0643 -0.197,0.9632 -0.5309,1.8054 -0.9858,2.5333 -0.4629,0.7282 -1.0849,1.2971 -1.8661,1.722 -0.7889,0.4247 -1.7674,0.637 -2.9355,0.637 -1.0846,0 -2.0101,-0.1973 -2.7913,-0.5839 -0.7736,-0.3793 -1.4182,-0.9256 -1.9191,-1.6308 -0.5079,-0.7056 -0.8799,-1.5398 -1.1225,-2.5033 -0.2426,-0.9632 -0.364,-2.01 -0.364,-3.1552 0,-1.0922 0.0987,-2.1238 0.2957,-3.0873 0.1973,-0.9632 0.5309,-1.8051 1.0015,-2.5183 0.4626,-0.7205 1.0922,-1.2894 1.8734,-1.7141 0.7889,-0.4249 1.7674,-0.6295 2.9353,-0.6295 1.0695,0 1.995,0.1896 2.7762,0.5765 0.7889,0.3867 1.4335,0.9253 1.9341,1.6231 0.5082,0.6903 0.8799,1.5245 1.1151,2.488 0.235,0.9632 0.3566,2.0177 0.3566,3.1782" style="fill:#535051;fill-opacity:1;fill-rule:nonzero;stroke:none" id="path30"></path><path d="m 426.7103,31.786 c 0,-0.1137 -0.0304,-0.22 -0.091,-0.2956 -0.0607,-0.0837 -0.1517,-0.1517 -0.2883,-0.2124 -0.1364,-0.0609 -0.3183,-0.1063 -0.5536,-0.1366 -0.2427,-0.0303 -0.5386,-0.0456 -0.8875,-0.0456 -0.3717,0 -0.675,0.0153 -0.9176,0.0456 -0.2353,0.0303 -0.4173,0.0757 -0.5539,0.1366 -0.129,0.0607 -0.2276,0.1287 -0.2883,0.2124 -0.0607,0.0756 -0.091,0.1819 -0.091,0.2956 v 11.7114 c 0,1.1454 -0.0833,2.0633 -0.2653,2.7535 -0.1746,0.6979 -0.4326,1.2972 -0.7739,1.8051 -0.3413,0.5006 -0.7812,0.8876 -1.3271,1.1532 -0.5386,0.2653 -1.1605,0.4019 -1.8737,0.4019 -0.9179,0 -1.8355,-0.3262 -2.7533,-0.9785 -0.9255,-0.6523 -1.8888,-1.6081 -2.89,-2.8672 V 31.786 c 0,-0.1137 -0.0303,-0.22 -0.0909,-0.2956 -0.0607,-0.0837 -0.1594,-0.1517 -0.2883,-0.2124 -0.1367,-0.0609 -0.3186,-0.1063 -0.5536,-0.1366 -0.243,-0.0303 -0.5463,-0.0456 -0.9179,-0.0456 -0.3489,0 -0.6449,0.0153 -0.8875,0.0456 -0.235,0.0303 -0.4247,0.0757 -0.5613,0.1366 -0.144,0.0607 -0.2426,0.1287 -0.2883,0.2124 -0.053,0.0756 -0.0833,0.1819 -0.0833,0.2956 v 20.0021 c 0,0.1213 0.0227,0.22 0.0683,0.3033 0.0454,0.0757 0.1364,0.1517 0.2653,0.22 0.1367,0.0683 0.3036,0.106 0.5159,0.129 0.2047,0.0227 0.478,0.038 0.8192,0.038 0.326,0 0.5993,-0.0153 0.8116,-0.038 0.2123,-0.023 0.3793,-0.0607 0.5006,-0.129 0.1137,-0.0683 0.2047,-0.1443 0.258,-0.22 0.0453,-0.0833 0.0756,-0.182 0.0756,-0.3033 v -2.6472 c 1.1228,1.2591 2.2454,2.1843 3.3679,2.7685 1.1151,0.584 2.2453,0.8799 3.3829,0.8799 1.3351,0 2.4576,-0.2276 3.3678,-0.6828 0.9102,-0.4474 1.6534,-1.0542 2.215,-1.8051 0.5612,-0.7586 0.9632,-1.6461 1.2058,-2.655 0.2503,-1.0162 0.3717,-2.2374 0.3717,-3.6558 z" style="fill:#535051;fill-opacity:1;fill-rule:nonzero;stroke:none" id="path32"></path><path d="m 18.0799,99.5134 v -1.4168 c 0,-12.5116 9.4332,-21.8078 21.547,-21.8078 h 3.4053 c 3.0058,0 6.1293,1.1804 8.3911,2.0982 3.4021,1.3743 4.0456,2.8744 6.289,4.4246 l 0.386,2.0197 -6.5639,5.6171 C 49.9207,89.0566 45.15,86.2036 42.1778,86.2036 h -2.2654 c -4.8002,0 -9.9253,5.6976 -9.9253,10.476 v 2.2614 c 0,5.601 5.2178,11.045 10.7788,11.045 5.7044,0 9.7934,-4.2466 10.7685,-4.2466 0.8975,0 6.5197,5.2069 6.5197,5.6605 0,4.5544 -10.5236,8.4991 -15.5939,8.4991 h -2.5478 c -11.1096,0 -21.8325,-9.1905 -21.8325,-20.3856" style="fill:#2a2627;fill-opacity:1;fill-rule:evenodd;stroke:none" id="path34"></path><path d="m 131.4825,85.6378 c -4.074,0 -7.0892,3.1305 -7.0892,7.0786 v 0.5647 c 0,4.1958 2.329,7.3607 6.5228,7.3607 h 1.4179 c 2.8253,0 5.3836,-3.5416 5.3836,-6.5134 v -0.8473 c 0,-4.0844 -2.3213,-7.6433 -6.2351,-7.6433 z m -18.4246,7.6433 v -1.6982 c 0,-8.46 8.8562,-15.1971 17.8628,-15.0271 5.3963,0.1069 9.4286,1.4548 12.5302,3.9229 2.2094,1.749 5.8969,7.0478 5.8969,10.821 v 3.6768 c 0,7.9146 -8.5685,15.0095 -16.7309,15.0095 h -2.5472 c -9.741,0 -17.0118,-6.7646 -17.0118,-16.7049" style="fill:#2a2627;fill-opacity:1;fill-rule:evenodd;stroke:none" id="path36"></path><path d="M 314.6281,107.7222 V 90.4484 c 0,-7.2847 5.3339,-13.8753 12.4756,-13.8753 1.5417,0 4.7296,0.1866 5.7257,0.5089 1.3271,0.439 2.6563,1.7571 4.4838,1.7571 0.2251,0 1.1594,-1.9828 5.3855,-1.9828 h 3.4027 c 2.0254,0 2.8316,0.8073 2.8316,2.8315 v 28.0344 c 0,0.6843 -1.0154,1.7016 -1.7,1.7016 h -7.9384 c -0.7863,0 -1.3666,-0.9226 -1.6988,-1.419 0,-8.0728 2.0259,-21.4568 -5.6891,-21.7927 -8.0912,-0.3603 -5.6546,14.1043 -5.6546,21.7927 -0.5003,0.7529 -1.0051,1.419 -2.2683,1.419 h -5.9544 c -1.4556,0 -3.4013,-0.3217 -3.4013,-1.7016" style="fill:#2a2627;fill-opacity:1;fill-rule:evenodd;stroke:none" id="path38"></path><path d="m 68.8306,120.7488 -0.2832,-3.6845 V 79.6878 c 0,-1.2738 0.5304,-2.8315 1.6963,-2.8315 h 7.6566 c 0.8643,0 1.1441,0.2738 1.6991,0.5664 0,4.0561 0.2855,9.2752 0.2855,13.877 -0.0015,4.5476 1.3801,8.7752 5.6715,8.7752 h 1.6982 c 7.9427,0 2.4687,-18.5854 5.3938,-22.8872 l 4.2466,-0.3314 1.1415,-0.072 4.191,0.4127 0.58,0.5159 0.3274,3.1074 v 14.7254 c 0,8.4609 -4.6426,14.4403 -13.0428,14.4403 h -1.419 c -2.3712,0 -6.444,-1.9812 -7.3658,-1.9812 h -1.2864 l -0.4215,13.0289 c -0.555,0.2928 -0.8348,0.5666 -1.6991,0.5666 h -7.6566 c -0.6594,0 -0.8578,-0.4665 -1.4131,-0.8515" style="fill:#2a2627;fill-opacity:1;fill-rule:evenodd;stroke:none" id="path40"></path><path d="m 156.4316,108.0048 c 1.1659,-5.0043 4.0411,-10.9122 5.6262,-16.185 0.7217,-2.4097 4.9079,-14.9635 6.8471,-14.9635 h 7.6553 c 2.8301,0 3.3553,4.9414 4.4458,7.17 0.4329,0.8728 3.0441,7.9707 3.2054,8.6901 2.2048,-0.5904 2.7443,-5.4983 3.79,-7.5509 0.6871,-1.3547 0.9059,-2.7513 1.3688,-4.2959 0.4031,-1.3289 1.2977,-2.5259 1.9423,-3.6896 l 3.1071,-0.3237 1.9916,-0.0728 4.5292,0.356 c 2.6251,1.7521 2.0701,4.2582 3.4571,7.0294 0.6673,1.3393 2.4097,6.3362 2.8406,7.9225 1.0522,3.8639 5.2452,12.4277 5.3249,16.194 -0.32,0.4851 -0.6097,1.1384 -1.4125,1.1384 h -5.9514 c -4.2199,0 -6.2773,-17.2785 -8.2244,-17.2785 -1.6716,0 -3.9209,7.2289 -4.235,8.797 -0.4288,2.1577 -1.1117,2.8667 -1.6021,4.9141 -0.4521,1.8854 -1.0406,3.5674 -3.2346,3.5674 h -5.9573 c -2.7351,0 -3.6479,-5.451 -4.6205,-7.8488 -1.0579,-2.5971 -2.7014,-6.8043 -3.4557,-9.5856 l -2.1268,1.8589 c 0,2.0274 -1.9956,6.2204 -2.6649,8.9479 -0.4198,1.7362 -0.972,1.917 -1.468,4.1972 -0.4513,2.0741 -1.1957,2.4304 -3.5198,2.4304 h -6.2345 c -0.9281,0 -1.101,-0.8092 -1.4239,-1.419" style="fill:#2a2627;fill-opacity:1;fill-rule:evenodd;stroke:none" id="path42"></path><path d="m 231.5622,94.4144 c 0,3.7434 3.2698,6.512 7.088,6.512 2.6887,0 5.9539,-3.1306 5.9539,-5.9499 v -2.5483 c 0,-3.3387 -2.6915,-6.7904 -5.9539,-6.7904 h -1.4207 c -3.3026,0 -5.6673,3.9804 -5.6673,7.6433 z m 13.8957,26.8642 -0.6616,-0.5281 -0.4062,-12.4687 -0.3521,0.004 c -2.2804,0.192 -4.7372,1.7006 -7.6529,1.7006 h -1.1336 c -8.6746,0 -15.5971,-7.4659 -15.5971,-15.8576 v -1.9831 c 0,-5.1208 4.1772,-11.5657 7.6502,-13.3138 2.1245,-1.0661 4.771,-2.5407 8.2261,-2.2652 0.4382,0.0383 4.6707,0.3734 4.9292,0.4646 1.0389,0.3793 2.5001,1.8082 3.5781,1.8082 0.459,0 2.0036,-1.9828 3.6862,-1.9828 h 5.3822 c 2.0287,0 2.8372,0.8073 2.8372,2.8315 v 39.6397 c 0,1.6946 -1.139,2.2728 -2.8372,2.2728 l -4.5417,0.0607 -3.1068,-0.3824 z" style="fill:#2a2627;fill-opacity:1;fill-rule:evenodd;stroke:none" id="path44"></path><path d="m 268.132,119.615 -0.0613,-38.8012 0.404,-3.0541 0.5156,-0.5737 3.6819,-0.3297 h 4.534 c 6.8111,0 -2.5086,23.2186 7.9382,23.2186 h 1.1285 c 5.6596,0 5.1088,-5.6758 5.1088,-11.3281 0,-2.7366 0.0111,-5.4794 0,-8.2114 -0.0192,-3.9506 0.7458,-3.6791 4.8209,-3.6791 h 4.252 c 1.69,0 2.2651,1.1424 2.2651,2.8315 v 11.6119 c 0,5.9346 0.063,9.5204 -2.2651,13.305 -1.8408,2.999 -5.6716,5.3813 -10.4857,5.3813 h -1.7073 c -2.6506,0 -6.4635,-1.9812 -7.0846,-1.9812 -0.7988,0 -1.093,0.6494 -1.4196,1.1313 0,2.4588 0,4.9116 0,7.3693 0.003,2.7473 0.2398,5.0949 -2.5512,5.0949 h -6.2345 c -1.5616,0 -2.8397,-0.3724 -2.8397,-1.9853" style="fill:#2a2627;fill-opacity:1;fill-rule:evenodd;stroke:none" id="path46"></path><path d="m 373.0346,107.1584 c -1.2592,0 0.1148,2.2654 -3.9691,2.2654 h -6.2328 c -0.6886,0 -1.7071,-1.0173 -1.7071,-1.7016 V 80.2556 c 0,-1.4544 0.3178,-3.3993 1.7071,-3.3993 h 7.931 c 6.1787,0 -6.1855,23.2186 11.342,23.2186 0.6097,0.915 0.8447,1.5851 0.8447,3.1153 v 4.2514 c 0,0.8583 -0.5269,2.2663 -1.4122,2.2663 h -1.4187 c -2.8565,0 -6.5554,-2.5495 -7.0849,-2.5495" style="fill:#2a2627;fill-opacity:1;fill-rule:evenodd;stroke:none" id="path48"></path><path d="m 389.1949,108.0048 12.7204,-30.2919 -0.2469,-1.9921 c -0.9711,-0.65 -1.7835,-1.6983 -3.4032,-1.6983 -1.7802,0 -2.9838,0.8498 -4.5369,0.8498 h -0.5646 c -1.0389,0 -3.4073,-4.691 -3.4073,-5.9479 0,-3.0818 5.5939,-3.9631 8.7942,-3.9631 5.8116,0 9.4011,2.3074 11.6249,5.9459 1.1446,1.8613 2.3009,3.1581 3.1516,5.6294 0.485,1.3892 1.898,5.0723 2.6078,6.4499 3.9617,7.702 6.6263,17.1612 10.395,25.0183 -0.4607,0.8827 -0.616,1.419 -1.9832,1.419 h -5.3838 c -3.3355,0 -3.2046,-0.6488 -3.9246,-2.8819 -0.2491,-0.7583 -1.6738,-4.0227 -2.1237,-4.9584 -0.6435,-1.334 -3.4889,-9.4382 -4.4433,-9.4382 h -1.421 c -0.254,1.1191 -3.0798,8.4645 -3.6227,9.4033 -1.5936,2.7726 -1.6582,7.8752 -5.4456,7.8752 h -6.5206 c -1.2588,0 -1.7634,-0.6661 -2.2665,-1.419" style="fill:#2a2627;fill-opacity:1;fill-rule:evenodd;stroke:none" id="path50"></path><path d="m 486.0643,91.8261 10.825,-15.1532 35.0277,58.0589 -20.2714,-0.1975 z" style="fill:#62666b;fill-opacity:1;fill-rule:evenodd;stroke:none" id="path52"></path><path d="m 473.6614,70.9668 9.6474,-16.7318 14.1715,-20.664 37.1994,-0.1981 c -8.2687,5.7103 -18.5029,2.556 -23.8184,10.8277 -4.7234,7.0784 -8.8569,14.364 -13.1885,21.6477 -5.5055,9.4481 -23.6152,35.6244 -25.3837,43.8868 H 430.562 c 9.642,-6.6858 20.8616,-0.5874 28.3408,-13.1817 3.5413,-5.9057 13.5813,-20.4681 14.7586,-25.5866" style="fill:#ea2832;fill-opacity:1;fill-rule:evenodd;stroke:none" id="path54"></path><path d="M 483.3088,54.235 473.6614,70.9668 434.5033,7.1991 455.5556,7.0007 Z" style="fill:#62666b;fill-opacity:1;fill-rule:evenodd;stroke:none" id="path56"></path></g></svg>